<svg width="21" height="20" viewBox="0 0 21 20" fill="none" xmlns="http://www.w3.org/2000/svg">
    <path fill-rule="evenodd" clip-rule="evenodd" d="M5.8202 15.3565C9.24389 14.8565 11.6012 14.8995 15.0294 15.374C15.2777 15.41 15.5045 15.5345 15.6681 15.7247C15.8316 15.9148 15.9208 16.1577 15.9192 16.4085C15.9192 16.6485 15.8367 16.8815 15.6876 17.0635C15.4278 17.3808 15.1617 17.6929 14.8894 17.9995H16.2103C16.2933 17.9005 16.3769 17.7995 16.4614 17.697C16.7581 17.3333 16.9199 16.8783 16.9196 16.409C16.9196 15.3965 16.1803 14.524 15.1664 14.384C11.6572 13.8985 9.20438 13.852 5.67565 14.3675C4.65129 14.517 3.91504 15.403 3.91504 16.4225C3.91504 16.875 4.06259 17.3225 4.34219 17.685C4.42472 17.792 4.50624 17.897 4.58727 18H5.87622C5.62284 17.6968 5.37571 17.3884 5.13496 17.075C4.99189 16.8874 4.91472 16.6579 4.91539 16.422C4.91539 15.8835 5.30252 15.432 5.8202 15.3565Z" fill="#F4F4F4"/>
    <path fill-rule="evenodd" clip-rule="evenodd" d="M10.4174 10.5C10.8115 10.5 11.2017 10.4224 11.5658 10.2716C11.9299 10.1209 12.2607 9.8999 12.5394 9.62132C12.8181 9.34274 13.0391 9.01203 13.1899 8.64805C13.3407 8.28407 13.4184 7.89397 13.4184 7.5C13.4184 7.10603 13.3407 6.71593 13.1899 6.35195C13.0391 5.98797 12.8181 5.65726 12.5394 5.37868C12.2607 5.1001 11.9299 4.87913 11.5658 4.72836C11.2017 4.5776 10.8115 4.5 10.4174 4.5C9.62144 4.5 8.85812 4.81607 8.29533 5.37868C7.73253 5.94129 7.41635 6.70435 7.41635 7.5C7.41635 8.29565 7.73253 9.05871 8.29533 9.62132C8.85812 10.1839 9.62144 10.5 10.4174 10.5ZM10.4174 11.5C11.4786 11.5 12.4963 11.0786 13.2467 10.3284C13.9971 9.57828 14.4187 8.56087 14.4187 7.5C14.4187 6.43913 13.9971 5.42172 13.2467 4.67157C12.4963 3.92143 11.4786 3.5 10.4174 3.5C9.35614 3.5 8.33838 3.92143 7.58798 4.67157C6.83758 5.42172 6.41602 6.43913 6.41602 7.5C6.41602 8.56087 6.83758 9.57828 7.58798 10.3284C8.33838 11.0786 9.35614 11.5 10.4174 11.5Z" fill="#F4F4F4"/>
    <path fill-rule="evenodd" clip-rule="evenodd" d="M10.4175 19C15.3898 19 19.4207 14.9705 19.4207 10C19.4207 5.0295 15.3898 1 10.4175 1C5.44531 1 1.41441 5.0295 1.41441 10C1.41441 14.9705 5.44531 19 10.4175 19ZM10.4175 20C15.9425 20 20.421 15.523 20.421 10C20.421 4.477 15.9425 0 10.4175 0C4.89262 0 0.414062 4.477 0.414062 10C0.414062 15.523 4.89262 20 10.4175 20Z" fill="#F4F4F4"/>
</svg>