<svg width="23" height="22" viewBox="0 0 23 22" fill="none" xmlns="http://www.w3.org/2000/svg">
            <path d="M1.44727 11C1.44727 16.523 5.92582 21 11.4507 21C16.9757 21 21.4542 16.523 21.4542 11C21.4542 5.477 16.9757 1 11.4507 1C5.92582 1 1.44727 5.477 1.44727 11Z" stroke="#F4F4F4" stroke-width="1.5" stroke-linecap="round" stroke-linejoin="round"/>
            <path d="M12.4512 1.05078C12.4512 1.05078 15.4523 5.00078 15.4523 11.0008C15.4523 17.0008 12.4512 20.9508 12.4512 20.9508" stroke="#F4F4F4" stroke-width="1.5" stroke-linecap="round" stroke-linejoin="round"/>
            <path d="M10.4503 20.9508C10.4503 20.9508 7.44922 17.0008 7.44922 11.0008C7.44922 5.00078 10.4503 1.05078 10.4503 1.05078" stroke="#F4F4F4" stroke-width="1.5" stroke-linecap="round" stroke-linejoin="round"/>
            <path d="M2.07715 14.5H20.8236" stroke="#F4F4F4" stroke-width="1.5" stroke-linecap="round" stroke-linejoin="round"/>
            <path d="M2.07715 7.5H20.8236" stroke="#F4F4F4" stroke-width="1.5" stroke-linecap="round" stroke-linejoin="round"/>
        </svg> 