<svg id="Layer_1" data-name="Layer 1" xmlns="http://www.w3.org/2000/svg" viewBox="0 0 255.36 100.46"><defs><style>.cls-1{fill:#f3f3f3;}</style></defs><path class="cls-1" d="M213.17,343.81c.09-1.08.47-10.09-5.71-29.78-.1-.31-.2-.64-.32-1-.19-.6-.39-1.2-.59-1.82-.4-1.22-.81-2.48-1.27-3.78-.82-1.76-3.45-6.75-4.23-8.22l-.15-.29a66.87,66.87,0,0,0-3.8-5.9c-1.09-1.35-2-2.84-3-4.21-.26-.33-4.64-6.65-5.3-7.42-1.38-2-1.81-2.88-2.72-4.3a48.13,48.13,0,0,1-3.08-5.48,17.18,17.18,0,0,1-1.36-5.82,10.15,10.15,0,0,1,.81-5.13,12.11,12.11,0,0,1,3.41-4.05c1-.79,3-1.39,4.11-.86,1.64.82,2.11,2.29,2.14,4,0,.24,0,.63-.3.67s-.79,0-.89-.5a3.84,3.84,0,0,0-.8-1.6,3.29,3.29,0,0,0-4.21-.76,8.13,8.13,0,0,0-3.79,7.59,5.11,5.11,0,0,0,1.77,4,4.58,4.58,0,0,0,2,.91,6,6,0,0,0,3.88-.4,12.18,12.18,0,0,0,4.24-3.28,11.76,11.76,0,0,0,2.12-6.19A9.27,9.27,0,0,0,193.3,253a8.4,8.4,0,0,0-2.89-1.83,5.8,5.8,0,0,0-3.81.16,12.86,12.86,0,0,0-5.73,3.88,19.93,19.93,0,0,0-2.94,4.15,21.79,21.79,0,0,0-1.79,6.4,17.11,17.11,0,0,0,.78,6.87c.44,1.64.87,3.32,1.23,5,.4,1.84.86,3.66,1.22,5.5s.64,3.86,1,5.79c.17,1.08.4,2.15.49,3.22.18,2.31.47,4.6.67,6.89s.33,4.7.42,7.05c.07,2,.08,4.1.11,6.15,0,.34.07.68.47.58.79-.18.66.32.68.75a50.27,50.27,0,0,1-.42,7.76c-.16,1.25-.34,2.49-.57,3.73-.19,1-.47,2-.69,3.08a62.48,62.48,0,0,1-2.38,7.52,71.43,71.43,0,0,1-3.06,6.59c-.16.31-.3.73-.69.8a1.43,1.43,0,0,0-.8.5,18.71,18.71,0,0,0-1.75,1.92l.92,0q19,0,38,0c1.52,0,1.52,0,1.46-1.5Zm-29.06-81.14a1,1,0,0,1,.31-1.06,9.14,9.14,0,0,1,1.42-1.62,2.09,2.09,0,0,1,2.24-.43,1.34,1.34,0,0,1,1,1.28c0,.11,0,.24,0,.35,0,1.12-.83,2.42-1.81,2.32-.47,0-.73-.15-.69-.67a2.43,2.43,0,0,1,.39-1.62.4.4,0,0,0,0-.56c-.16-.15-.35,0-.49.07a2.31,2.31,0,0,0-1.05,1.52.64.64,0,0,1-.53.59C184.64,262.88,184.25,263,184.11,262.67Zm7.75-.62A10.82,10.82,0,0,1,190.5,265a4.43,4.43,0,0,1-3.86,2,2,2,0,0,1-2.16-2.44A.56.56,0,0,1,185,264c.27-.06.4,0,.53.32a1.66,1.66,0,0,0,1.66,1,3.8,3.8,0,0,0,3.28-1.84c.26-.43-.06-.84,0-1.25.06-.22,0-.45.3-.52a1.48,1.48,0,0,1,.95,0C191.91,261.74,191.9,261.91,191.86,262.05Z" transform="translate(-172.82 -250.88)"/><path class="cls-1" d="M219.15,285.46v.32a2.58,2.58,0,0,0-.82.12.62.62,0,0,0-.38.38,3.11,3.11,0,0,0-.09.87V295a3,3,0,0,0,.09.86.61.61,0,0,0,.38.39,3.33,3.33,0,0,0,.82.12v.32l-.92,0H216l-.87,0v-.32a3.5,3.5,0,0,0,.82-.12.6.6,0,0,0,.37-.39,3,3,0,0,0,.1-.86v-8.75l.06,0-3.9,10.47h-.25l-4-10.33v8.41a2.93,2.93,0,0,0,.11.89.71.71,0,0,0,.41.47,2.84,2.84,0,0,0,.93.16v.32l-.75,0H207.3l-.68,0v-.32a2.27,2.27,0,0,0,.82-.16.71.71,0,0,0,.37-.47,3,3,0,0,0,.1-.89v-7.74a2.71,2.71,0,0,0-.1-.87.61.61,0,0,0-.37-.38,2.69,2.69,0,0,0-.82-.12v-.32l.68,0,.8,0,.72,0,.63,0,3.62,9.52-.27.13,3.58-9.6h.74l1.11,0Z" transform="translate(-172.82 -250.88)"/><path class="cls-1" d="M227.33,288.36V295a1.71,1.71,0,0,0,.26,1.06,1.13,1.13,0,0,0,.95.34v.34a8.21,8.21,0,0,0-1-.05,6.22,6.22,0,0,0-.88.05,3.48,3.48,0,0,0-.77.17V295a2.83,2.83,0,0,1-3.59,1.76,1.92,1.92,0,0,1-.68-.45,1.67,1.67,0,0,1-.41-.83,5.6,5.6,0,0,1-.12-1.26v-4a1.78,1.78,0,0,0-.25-1.06,1.13,1.13,0,0,0-1-.34v-.34a8.42,8.42,0,0,0,1,.05,8.18,8.18,0,0,0,.88-.05,5.32,5.32,0,0,0,.78-.17v6.25a6.32,6.32,0,0,0,.06.91,1.14,1.14,0,0,0,.32.67,1.13,1.13,0,0,0,.83.25,1.69,1.69,0,0,0,1.1-.38,2.55,2.55,0,0,0,.77-1,3.81,3.81,0,0,0,.28-1.47v-3.29a1.78,1.78,0,0,0-.26-1.06,1.12,1.12,0,0,0-.95-.34v-.34a8.25,8.25,0,0,0,1,.05,8.53,8.53,0,0,0,.89-.05A5.47,5.47,0,0,0,227.33,288.36Z" transform="translate(-172.82 -250.88)"/><path class="cls-1" d="M232.2,288.31a2.54,2.54,0,0,1,1.08.21,2.7,2.7,0,0,1,.65.38c.35.29.57.09.64-.57h.37c0,.29,0,.65-.05,1.06s0,.95,0,1.64h-.36a5.71,5.71,0,0,0-.33-1.14,2.24,2.24,0,0,0-.68-.92,1.77,1.77,0,0,0-1.16-.36,1.45,1.45,0,0,0-.93.31,1.14,1.14,0,0,0-.37.92,1.24,1.24,0,0,0,.28.82,3.23,3.23,0,0,0,.75.64l1,.64a11.13,11.13,0,0,1,1.1.78,3.6,3.6,0,0,1,.79.88,2,2,0,0,1,.29,1.13,1.91,1.91,0,0,1-.38,1.22,2.34,2.34,0,0,1-1,.75,3.49,3.49,0,0,1-1.35.25,4.65,4.65,0,0,1-.66-.05,3.66,3.66,0,0,1-.59-.17,2.79,2.79,0,0,1-.33-.19l-.33-.24a.19.19,0,0,0-.28,0,1,1,0,0,0-.19.53h-.37c0-.34,0-.75.05-1.24s0-1.13,0-1.94h.37a8.73,8.73,0,0,0,.32,1.56,2,2,0,0,0,.65,1,1.87,1.87,0,0,0,1.24.38,1.57,1.57,0,0,0,.65-.15,1.29,1.29,0,0,0,.55-.47,1.71,1.71,0,0,0,.22-.9,1.44,1.44,0,0,0-.51-1.14A10.34,10.34,0,0,0,232,293c-.38-.25-.74-.49-1.08-.73a3.53,3.53,0,0,1-.81-.83,2,2,0,0,1-.31-1.12,2,2,0,0,1,.33-1.17,1.91,1.91,0,0,1,.87-.66A3,3,0,0,1,232.2,288.31Z" transform="translate(-172.82 -250.88)"/><path class="cls-1" d="M240.33,288.31a2.81,2.81,0,0,1,2.19.85,3.78,3.78,0,0,1,.79,2.65h-5.62l0-.3h4.11a5.12,5.12,0,0,0-.13-1.44,2.43,2.43,0,0,0-.5-1.06,1.13,1.13,0,0,0-.88-.4,1.64,1.64,0,0,0-1.3.74,4.32,4.32,0,0,0-.68,2.32l.05.06c0,.16,0,.34-.05.53s0,.38,0,.57a4.57,4.57,0,0,0,.35,1.86,2.88,2.88,0,0,0,.91,1.19,2,2,0,0,0,1.17.41,2.53,2.53,0,0,0,.91-.16,2.14,2.14,0,0,0,.8-.5,3,3,0,0,0,.63-.94l.32.13a3.47,3.47,0,0,1-.57,1,3,3,0,0,1-2.4,1.11,3.57,3.57,0,0,1-2-.52,3.39,3.39,0,0,1-1.26-1.46,5,5,0,0,1-.44-2.14,5.89,5.89,0,0,1,.45-2.41,3.64,3.64,0,0,1,1.26-1.56A3.26,3.26,0,0,1,240.33,288.31Z" transform="translate(-172.82 -250.88)"/><path class="cls-1" d="M251.74,288.36V295a1.7,1.7,0,0,0,.27,1.06,1.11,1.11,0,0,0,.94.34v.34a7.94,7.94,0,0,0-1-.05,6.46,6.46,0,0,0-.89.05,3.62,3.62,0,0,0-.77.17V295a2.82,2.82,0,0,1-3.58,1.76,1.92,1.92,0,0,1-.68-.45,1.68,1.68,0,0,1-.42-.83,6.34,6.34,0,0,1-.11-1.26v-4a1.78,1.78,0,0,0-.25-1.06,1.13,1.13,0,0,0-1-.34v-.34a8.42,8.42,0,0,0,1,.05,8.18,8.18,0,0,0,.88-.05,5.17,5.17,0,0,0,.77-.17v6.25a5.1,5.1,0,0,0,.07.91,1.14,1.14,0,0,0,.32.67,1.1,1.1,0,0,0,.82.25,1.7,1.7,0,0,0,1.11-.38,2.53,2.53,0,0,0,.76-1,3.64,3.64,0,0,0,.28-1.47v-3.29a1.78,1.78,0,0,0-.25-1.06,1.13,1.13,0,0,0-1-.34v-.34a8.42,8.42,0,0,0,1,.05,8.18,8.18,0,0,0,.88-.05A5.17,5.17,0,0,0,251.74,288.36Z" transform="translate(-172.82 -250.88)"/><path class="cls-1" d="M259,288.31a2.63,2.63,0,0,1,1,.16,1.72,1.72,0,0,1,.68.45,1.65,1.65,0,0,1,.42.82,6.34,6.34,0,0,1,.11,1.26v4.25a1.15,1.15,0,0,0,.28.91,1.4,1.4,0,0,0,.93.24v.33l-.83,0-1.08,0-1,0-.75,0v-.33a1.12,1.12,0,0,0,.81-.24,1.29,1.29,0,0,0,.24-.91v-4.6a5.17,5.17,0,0,0-.07-.91,1.12,1.12,0,0,0-.32-.66,1.06,1.06,0,0,0-.82-.26,1.76,1.76,0,0,0-1.11.38,2.56,2.56,0,0,0-.76,1,3.72,3.72,0,0,0-.28,1.48v3.53a1.29,1.29,0,0,0,.24.91,1.12,1.12,0,0,0,.81.24v.33l-.76,0-1,0-1.09,0-.82,0v-.33a1.44,1.44,0,0,0,.93-.24,1.19,1.19,0,0,0,.28-.91v-5a1.78,1.78,0,0,0-.26-1.06,1.12,1.12,0,0,0-.95-.34v-.34a8.25,8.25,0,0,0,1,.05,8.53,8.53,0,0,0,.89-.05,5.17,5.17,0,0,0,.77-.17v1.88a2.88,2.88,0,0,1,1.13-1.48A2.75,2.75,0,0,1,259,288.31Zm4.79,0a2.63,2.63,0,0,1,1,.16,1.84,1.84,0,0,1,.69.45,1.64,1.64,0,0,1,.41.82A6.34,6.34,0,0,1,266,291v4.25a1.15,1.15,0,0,0,.28.91,1.44,1.44,0,0,0,.93.24v.33l-.83,0-1.08,0-1,0-.75,0v-.33a1.12,1.12,0,0,0,.81-.24,1.29,1.29,0,0,0,.24-.91v-4.6a5.17,5.17,0,0,0-.07-.91,1,1,0,0,0-1.14-.92,1.78,1.78,0,0,0-1.11.38,2.56,2.56,0,0,0-.76,1,3.59,3.59,0,0,0-.28,1.46l-.05-1.48a2.83,2.83,0,0,1,1.16-1.5A3.08,3.08,0,0,1,263.81,288.31Z" transform="translate(-172.82 -250.88)"/><path class="cls-1" d="M275.76,288.31a3.7,3.7,0,0,1,1.83.45,3.12,3.12,0,0,1,1.3,1.4,6.52,6.52,0,0,1,0,5,3.2,3.2,0,0,1-1.3,1.39,3.81,3.81,0,0,1-1.83.44,3.85,3.85,0,0,1-1.82-.44,3.14,3.14,0,0,1-1.3-1.39,6.52,6.52,0,0,1,0-5,3.06,3.06,0,0,1,1.3-1.4A3.75,3.75,0,0,1,275.76,288.31Zm0,.32a1.69,1.69,0,0,0-1.48.94,8.26,8.26,0,0,0,0,6.13,1.64,1.64,0,0,0,3,0,8.39,8.39,0,0,0,0-6.13A1.71,1.71,0,0,0,275.76,288.63Z" transform="translate(-172.82 -250.88)"/><path class="cls-1" d="M284.52,284.28a2.43,2.43,0,0,1,.79.12,2.53,2.53,0,0,1,.59.31,1.44,1.44,0,0,1,.37.45,1.26,1.26,0,0,1,.13.54.8.8,0,0,1-.24.6.82.82,0,0,1-.61.24.88.88,0,0,1-.61-.23.77.77,0,0,1-.26-.63.8.8,0,0,1,.18-.54.94.94,0,0,1,.49-.27.53.53,0,0,0-.25-.24,1.13,1.13,0,0,0-.53-.11,1.23,1.23,0,0,0-.63.16,1.13,1.13,0,0,0-.41.43,2.36,2.36,0,0,0-.24,1c0,.44-.05,1.11-.05,2v.41H285v.32h-1.71v6.22a1.1,1.1,0,0,0,.46,1,2.39,2.39,0,0,0,1.23.27v.33l-1,0-1.42,0-1.07,0-.81,0v-.33a1.4,1.4,0,0,0,.93-.24,1.15,1.15,0,0,0,.28-.91v-6.38h-1.27v-.32h1.27a13.78,13.78,0,0,1,.08-1.58,4.47,4.47,0,0,1,.26-1.09,2.56,2.56,0,0,1,.47-.8,2.34,2.34,0,0,1,.82-.58A2.71,2.71,0,0,1,284.52,284.28Z" transform="translate(-172.82 -250.88)"/><path class="cls-1" d="M292.19,285.89v2.66h2.36v.32h-2.36V295a1.58,1.58,0,0,0,.27,1.05,1,1,0,0,0,.75.3A1.09,1.09,0,0,0,294,296a3.41,3.41,0,0,0,.6-1.31l.32.08a3.77,3.77,0,0,1-.63,1.56,1.67,1.67,0,0,1-1.44.63,2.5,2.5,0,0,1-.89-.13,1.91,1.91,0,0,1-.62-.39,2.07,2.07,0,0,1-.49-.88,5.49,5.49,0,0,1-.13-1.35v-5.33h-1.53v-.32h1.53v-2.44c.26,0,.52,0,.76-.06A2.63,2.63,0,0,0,292.19,285.89Z" transform="translate(-172.82 -250.88)"/><path class="cls-1" d="M297.76,284.27v6a2.8,2.8,0,0,1,1.15-1.5,3.25,3.25,0,0,1,1.56-.41,2.71,2.71,0,0,1,1,.16,1.76,1.76,0,0,1,.67.45,1.65,1.65,0,0,1,.43.79,5,5,0,0,1,.13,1.29v4.25a1.15,1.15,0,0,0,.28.91,1.44,1.44,0,0,0,.93.24v.33l-.83,0-1.08,0-1,0-.75,0v-.33a1.12,1.12,0,0,0,.81-.24,1.29,1.29,0,0,0,.24-.91v-4.6a5.14,5.14,0,0,0-.08-.91,1.11,1.11,0,0,0-.36-.66,1.19,1.19,0,0,0-.85-.26,1.84,1.84,0,0,0-1.15.37,2.34,2.34,0,0,0-.79,1,3.67,3.67,0,0,0-.29,1.49v3.55a1.29,1.29,0,0,0,.24.91,1.12,1.12,0,0,0,.81.24v.33l-.75,0-1,0-1.08,0-.83,0v-.33a1.44,1.44,0,0,0,.93-.24,1.15,1.15,0,0,0,.28-.91v-9.07a1.78,1.78,0,0,0-.26-1.06,1.11,1.11,0,0,0-.95-.34v-.34a8.42,8.42,0,0,0,1,.05,6.29,6.29,0,0,0,.88-.06A4.18,4.18,0,0,0,297.76,284.27Z" transform="translate(-172.82 -250.88)"/><path class="cls-1" d="M308.49,288.31a2.84,2.84,0,0,1,2.19.85,3.83,3.83,0,0,1,.79,2.65h-5.62l0-.3h4.11a5.12,5.12,0,0,0-.13-1.44,2.55,2.55,0,0,0-.5-1.06,1.13,1.13,0,0,0-.88-.4,1.62,1.62,0,0,0-1.3.74,4.32,4.32,0,0,0-.68,2.32l.05.06c0,.16,0,.34-.05.53s0,.38,0,.57a4.41,4.41,0,0,0,.35,1.86,2.8,2.8,0,0,0,.91,1.19,2,2,0,0,0,1.17.41,2.53,2.53,0,0,0,.91-.16,2,2,0,0,0,.79-.5,2.82,2.82,0,0,0,.64-.94l.32.13a3.47,3.47,0,0,1-.57,1,3,3,0,0,1-2.41,1.11,3.54,3.54,0,0,1-2-.52,3.39,3.39,0,0,1-1.26-1.46,5,5,0,0,1-.44-2.14,5.89,5.89,0,0,1,.45-2.41,3.5,3.5,0,0,1,1.26-1.56A3.26,3.26,0,0,1,308.49,288.31Z" transform="translate(-172.82 -250.88)"/><path class="cls-1" d="M245.19,310.77v.91a4.19,4.19,0,0,0-1.84,1,7.21,7.21,0,0,0-1.74,2.9L231,343.05h-.73l-11-28.47a4.86,4.86,0,0,0-1.54-2.29,3.31,3.31,0,0,0-1.59-.61v-.91c.61,0,1.35.07,2.25.09s1.75.05,2.6.05c1.18,0,2.28,0,3.3-.05s1.86-.06,2.49-.09v.91a7.23,7.23,0,0,0-2.33.36,1.25,1.25,0,0,0-.86,1.11,5.94,5.94,0,0,0,.52,2.33l8.42,22.32-.72.77,7.88-20.46a10.57,10.57,0,0,0,.9-3.83,2.21,2.21,0,0,0-1-2,6.09,6.09,0,0,0-2.9-.63v-.91c.88,0,1.77.07,2.67.09s1.75.05,2.54.05,1.43,0,2-.05S244.73,310.8,245.19,310.77Z" transform="translate(-172.82 -250.88)"/><path class="cls-1" d="M252.43,319v19.61a3.3,3.3,0,0,0,.79,2.58,4.09,4.09,0,0,0,2.65.68v.95l-2.33-.11c-1-.05-2.09-.07-3.15-.07s-2.07,0-3.12.07l-2.36.11v-.95a4.09,4.09,0,0,0,2.65-.68,3.3,3.3,0,0,0,.79-2.58V324.45a5.08,5.08,0,0,0-.72-3,3.2,3.2,0,0,0-2.72-1v-.95c1,.09,1.9.14,2.81.14a18.47,18.47,0,0,0,2.51-.16A12.51,12.51,0,0,0,252.43,319Zm-2.36-10.82a2.79,2.79,0,0,1,2,.86,2.82,2.82,0,0,1,.86,2,2.88,2.88,0,0,1-4.93,2,2.75,2.75,0,0,1-.86-2,2.94,2.94,0,0,1,2.89-2.9Z" transform="translate(-172.82 -250.88)"/><path class="cls-1" d="M265.29,307.33v31.29a3.63,3.63,0,0,0,.68,2.58,3.19,3.19,0,0,0,2.3.68v.95l-2.15-.11c-.95-.05-1.91-.07-2.87-.07s-2.07,0-3.13.07l-2.35.11v-.95a4.09,4.09,0,0,0,2.65-.68,3.3,3.3,0,0,0,.79-2.58V312.77a5.05,5.05,0,0,0-.72-3,3.22,3.22,0,0,0-2.72-1v-.95c1,.09,1.9.14,2.81.14a20.24,20.24,0,0,0,2.51-.16A13.48,13.48,0,0,0,265.29,307.33Zm14.39,12.18v.91a5.4,5.4,0,0,0-2.12.61,7.39,7.39,0,0,0-1.95,1.52l-6.39,6.7.64-1.27,8.42,11.54a9,9,0,0,0,1.47,1.63,3.2,3.2,0,0,0,1.7.73v.95c-.33,0-.85-.07-1.56-.11s-1.41-.07-2.11-.07c-.94,0-1.89,0-2.85.07l-2.17.11v-.95a1.5,1.5,0,0,0,1.26-.46c.24-.3.2-.66-.13-1.08l-5.21-7.61a3.67,3.67,0,0,0-3.58-2v-.91a7.68,7.68,0,0,0,2.36-.61,5.62,5.62,0,0,0,1.72-1.29l3.35-3.48a4.11,4.11,0,0,0,1.45-2.38,1.32,1.32,0,0,0-.93-1.27,6.56,6.56,0,0,0-2.42-.38v-.91l2.65.11c1,.05,1.8.07,2.46.07s1,0,1.5,0,.93,0,1.36-.07Z" transform="translate(-172.82 -250.88)"/><path class="cls-1" d="M290.59,319v19.61a3.3,3.3,0,0,0,.8,2.58,4.06,4.06,0,0,0,2.64.68v.95l-2.33-.11c-1-.05-2.09-.07-3.14-.07s-2.07,0-3.13.07l-2.35.11v-.95a4.09,4.09,0,0,0,2.65-.68,3.34,3.34,0,0,0,.79-2.58V324.45a5,5,0,0,0-.73-3,3.18,3.18,0,0,0-2.71-1v-.95c1,.09,1.9.14,2.8.14a18.52,18.52,0,0,0,2.52-.16A12.2,12.2,0,0,0,290.59,319Zm-2.35-10.82a2.94,2.94,0,0,1,2.9,2.9,2.79,2.79,0,0,1-.86,2,2.82,2.82,0,0,1-2,.86,2.94,2.94,0,0,1-2.9-2.9,2.82,2.82,0,0,1,.86-2A2.79,2.79,0,0,1,288.24,308.19Z" transform="translate(-172.82 -250.88)"/><path class="cls-1" d="M311.55,318.88a8,8,0,0,1,2.88.45,5,5,0,0,1,3.15,3.53,14.92,14.92,0,0,1,.36,3.67v12.09a3.3,3.3,0,0,0,.79,2.58,4.09,4.09,0,0,0,2.65.68v.95l-2.36-.11c-1-.05-2.08-.07-3.07-.07s-2,0-2.92.07l-2.15.11v-.95a3.19,3.19,0,0,0,2.3-.68,3.63,3.63,0,0,0,.68-2.58V325.53a13.86,13.86,0,0,0-.22-2.58,3.34,3.34,0,0,0-1-1.9,3.52,3.52,0,0,0-2.42-.72,5.36,5.36,0,0,0-3.33,1.08,7.19,7.19,0,0,0-2.22,3,10.64,10.64,0,0,0-.79,4.19v10.05a3.63,3.63,0,0,0,.68,2.58,3.2,3.2,0,0,0,2.31.68v.95l-2.15-.11c-1-.05-1.93-.07-2.92-.07s-2,0-3.08.07l-2.36.11v-.95a4.09,4.09,0,0,0,2.65-.68,3.3,3.3,0,0,0,.79-2.58V324.45a5.08,5.08,0,0,0-.72-3,3.2,3.2,0,0,0-2.72-1v-.95c1,.09,1.9.14,2.81.14a18.47,18.47,0,0,0,2.51-.16,12.51,12.51,0,0,0,2.2-.48v5.35a7.88,7.88,0,0,1,3.28-4.28A8.76,8.76,0,0,1,311.55,318.88Z" transform="translate(-172.82 -250.88)"/><path class="cls-1" d="M331.25,351.34a20,20,0,0,1-4.53-.5,8.22,8.22,0,0,1-3.42-1.56,3.35,3.35,0,0,1-1.29-2.69,3.5,3.5,0,0,1,1.27-2.72,8.24,8.24,0,0,1,3.44-1.72l.27.72a2.85,2.85,0,0,0-1.58,1.27,4,4,0,0,0-.59,2.13,3.49,3.49,0,0,0,1.92,3.19,10,10,0,0,0,5,1.11,15.26,15.26,0,0,0,4-.52,7.32,7.32,0,0,0,3.22-1.74,4.29,4.29,0,0,0,1.26-3.22,3.21,3.21,0,0,0-1.06-2.47c-.71-.64-2.11-1-4.19-1h-3.35a16.15,16.15,0,0,1-2.81-.23,4.43,4.43,0,0,1-2.21-.95,2.71,2.71,0,0,1-.87-2.21,4.46,4.46,0,0,1,1.27-3,14,14,0,0,1,4.67-2.92l.54.41a20,20,0,0,0-2.67,1.65,2.4,2.4,0,0,0-1.13,2c0,1,.72,1.45,2.17,1.45h5.66a11,11,0,0,1,3.51.54,5.72,5.72,0,0,1,2.6,1.72,4.64,4.64,0,0,1,1,3.08,6.63,6.63,0,0,1-1.36,4,9.64,9.64,0,0,1-4.05,3A17.21,17.21,0,0,1,331.25,351.34Zm.23-18.16a10.41,10.41,0,0,1-4-.74,6.2,6.2,0,0,1-2.86-2.33,8.5,8.5,0,0,1,0-8.15,6.16,6.16,0,0,1,2.86-2.34,11.4,11.4,0,0,1,8.08,0,6.18,6.18,0,0,1,2.83,2.34,8.5,8.5,0,0,1,0,8.15,6.22,6.22,0,0,1-2.83,2.33A10.44,10.44,0,0,1,331.48,333.18Zm0-.81a3.12,3.12,0,0,0,2.69-1.36c.65-.9,1-2.56,1-5s-.32-4.07-1-5a3.15,3.15,0,0,0-2.69-1.36,3.18,3.18,0,0,0-2.68,1.36q-1,1.36-1,5t1,5A3.16,3.16,0,0,0,331.48,332.37Zm6.51-9.73-.81-.32a6.63,6.63,0,0,1,2.17-2.72,5.26,5.26,0,0,1,3.22-1.17,2.77,2.77,0,0,1,1.9.65,2.55,2.55,0,0,1,.72,2,2.34,2.34,0,0,1-.74,2,2.5,2.5,0,0,1-1.52.57,2,2,0,0,1-1.27-.48,2.09,2.09,0,0,1-.68-1.52,5.66,5.66,0,0,1,.64-2.67l.58.14a8,8,0,0,0-2.71,1.52A8.37,8.37,0,0,0,338,322.64Z" transform="translate(-172.82 -250.88)"/><path class="cls-1" d="M369.87,310.55l11,28.47a4.86,4.86,0,0,0,1.54,2.29,3.31,3.31,0,0,0,1.59.61v.91c-.61-.06-1.35-.1-2.22-.11s-1.75,0-2.63,0c-1.17,0-2.28,0-3.3,0s-1.86,0-2.49.11v-.91c1.54-.06,2.52-.32,2.94-.79s.33-1.47-.27-3l-8.42-22.5.72-.59-7.87,20.46a11.84,11.84,0,0,0-.86,3.06,3.4,3.4,0,0,0,.24,2,2.24,2.24,0,0,0,1.32,1,8.15,8.15,0,0,0,2.33.36v.91c-.85-.06-1.73-.1-2.65-.11l-2.56,0q-1.12,0-1.92,0a13,13,0,0,0-1.47.11v-.91a4.48,4.48,0,0,0,1.85-1.06A7.15,7.15,0,0,0,358.5,338l10.64-27.43h.73Zm5.52,19.24v.9H361.9l.45-.9Z" transform="translate(-172.82 -250.88)"/><path class="cls-1" d="M393.41,351.34a20,20,0,0,1-4.53-.5,8.22,8.22,0,0,1-3.42-1.56,3.35,3.35,0,0,1-1.29-2.69,3.53,3.53,0,0,1,1.27-2.72,8.3,8.3,0,0,1,3.44-1.72l.27.72a2.85,2.85,0,0,0-1.58,1.27,4,4,0,0,0-.59,2.13,3.49,3.49,0,0,0,1.92,3.19,10,10,0,0,0,5,1.11,15.26,15.26,0,0,0,4-.52,7.32,7.32,0,0,0,3.22-1.74,4.29,4.29,0,0,0,1.26-3.22,3.21,3.21,0,0,0-1.06-2.47c-.71-.64-2.11-1-4.19-1h-3.35a16.23,16.23,0,0,1-2.81-.23,4.43,4.43,0,0,1-2.21-.95,2.7,2.7,0,0,1-.86-2.21,4.45,4.45,0,0,1,1.26-3,14,14,0,0,1,4.67-2.92l.54.41a20,20,0,0,0-2.67,1.65,2.4,2.4,0,0,0-1.13,2c0,1,.72,1.45,2.17,1.45h5.66a11,11,0,0,1,3.51.54,5.72,5.72,0,0,1,2.6,1.72,4.64,4.64,0,0,1,1,3.08,6.63,6.63,0,0,1-1.36,4,9.64,9.64,0,0,1-4.05,3A17.21,17.21,0,0,1,393.41,351.34Zm.22-18.16a10.39,10.39,0,0,1-4-.74,6.2,6.2,0,0,1-2.86-2.33,8.5,8.5,0,0,1,0-8.15,6.16,6.16,0,0,1,2.86-2.34,11.4,11.4,0,0,1,8.08,0,6.18,6.18,0,0,1,2.83,2.34,8.5,8.5,0,0,1,0,8.15,6.22,6.22,0,0,1-2.83,2.33A10.46,10.46,0,0,1,393.63,333.18Zm0-.81a3.13,3.13,0,0,0,2.7-1.36c.65-.9,1-2.56,1-5s-.32-4.07-1-5a3.33,3.33,0,0,0-5.37,0q-1,1.36-1,5t1,5A3.15,3.15,0,0,0,393.63,332.37Zm6.52-9.73-.81-.32a6.63,6.63,0,0,1,2.17-2.72,5.26,5.26,0,0,1,3.22-1.17,2.75,2.75,0,0,1,1.9.65,2.55,2.55,0,0,1,.72,2,2.34,2.34,0,0,1-.74,2,2.5,2.5,0,0,1-1.52.57,2,2,0,0,1-1.27-.48,2.09,2.09,0,0,1-.68-1.52,5.66,5.66,0,0,1,.64-2.67l.59.14a8,8,0,0,0-2.72,1.52A8.37,8.37,0,0,0,400.15,322.64Z" transform="translate(-172.82 -250.88)"/><path class="cls-1" d="M419.53,318.88a8.09,8.09,0,0,1,6.23,2.42q2.24,2.43,2.24,7.54H412l0-.86h11.68a15,15,0,0,0-.36-4.1,7.1,7.1,0,0,0-1.43-3,3.16,3.16,0,0,0-2.51-1.13,4.61,4.61,0,0,0-3.69,2.08q-1.61,2.08-1.92,6.61l.13.18c-.06.45-.1.95-.13,1.5s-.05,1.08-.05,1.63a12.74,12.74,0,0,0,1,5.29,8.12,8.12,0,0,0,2.6,3.38,5.62,5.62,0,0,0,3.33,1.15,7.68,7.68,0,0,0,2.58-.43,6.26,6.26,0,0,0,2.26-1.43,8.39,8.39,0,0,0,1.81-2.67l.91.37a9.35,9.35,0,0,1-1.63,2.89,8.82,8.82,0,0,1-2.85,2.29,8.62,8.62,0,0,1-4,.88,10.21,10.21,0,0,1-5.59-1.49,9.75,9.75,0,0,1-3.58-4.15,14.11,14.11,0,0,1-1.24-6.08,16.8,16.8,0,0,1,1.27-6.86,10.13,10.13,0,0,1,3.57-4.44A9.41,9.41,0,0,1,419.53,318.88Z" transform="translate(-172.82 -250.88)"/></svg>