<svg width="21" height="20" viewBox="0 0 21 20" fill="none" xmlns="http://www.w3.org/2000/svg">
            <path d="M20.4375 18.954L14.8489 13.3673C16.1919 11.7556 16.8616 9.68835 16.7187 7.59562C16.5758 5.50288 15.6313 3.54579 14.0817 2.13146C12.5321 0.717125 10.4967 -0.0455437 8.39892 0.00210549C6.30114 0.0497547 4.3025 0.904053 2.81876 2.38728C1.33503 3.87051 0.480436 5.86847 0.43277 7.96554C0.385105 10.0626 1.14803 12.0973 2.56285 13.6464C3.97766 15.1954 5.93543 16.1396 8.02888 16.2825C10.1223 16.4253 12.1903 15.7558 13.8025 14.4133L19.3911 20L20.4375 18.954ZM1.93715 8.16382C1.93715 6.84703 2.32776 5.5598 3.05959 4.46492C3.79141 3.37004 4.83158 2.51669 6.04856 2.01277C7.26554 1.50886 8.60467 1.37701 9.8966 1.6339C11.1885 1.8908 12.3753 2.5249 13.3067 3.45601C14.2381 4.38713 14.8724 5.57345 15.1294 6.86494C15.3864 8.15644 15.2545 9.49511 14.7504 10.7117C14.2463 11.9282 13.3927 12.9681 12.2974 13.6996C11.2022 14.4312 9.91453 14.8217 8.59728 14.8217C6.8315 14.8197 5.13861 14.1176 3.89002 12.8695C2.64143 11.6213 1.93911 9.92899 1.93715 8.16382Z" fill="#F4F4F4"/>
        </svg>